<?xml version="1.0" encoding="UTF-8"?>
<svg width="20px" height="20px" viewBox="0 0 20 20" version="1.1" xmlns="http://www.w3.org/2000/svg" xmlns:xlink="http://www.w3.org/1999/xlink">
    <title>icon-telegram</title>
    <g id="Home" stroke="none" stroke-width="1" fill="none" fill-rule="evenodd" opacity="0.5">
        <g id="Custom_Microphones_1440-Home" transform="translate(-1235.000000, -680.000000)" fill="#FFFFFF">
            <g id="Social" transform="translate(1235.000000, 630.000000)">
                <path d="M14.635,56.801 C14.485,58.382 13.833,62.22 13.502,63.99 C13.363,64.739 13.086,64.991 12.819,65.016 C12.239,65.07 11.797,64.632 11.235,64.263 C10.355,63.687 9.858,63.327 9.003,62.764 C8.016,62.113 8.656,61.756 9.219,61.172 C9.365,61.019 11.924,58.692 11.974,58.481 C11.981,58.454 11.986,58.356 11.928,58.304 C11.869,58.251 11.782,58.27 11.721,58.283 C11.632,58.303 10.226,59.233 7.502,61.072 C7.104,61.345 6.741,61.479 6.418,61.472 C6.061,61.464 5.374,61.27 4.864,61.104 C4.238,60.901 3.739,60.793 3.782,60.447 C3.806,60.267 4.053,60.083 4.527,59.895 C7.442,58.624 9.386,57.787 10.359,57.383 C13.136,56.228 13.713,56.027 14.089,56.021 C14.171,56.019 14.357,56.039 14.477,56.137 C14.577,56.219 14.606,56.329 14.618,56.407 C14.632,56.486 14.649,56.662 14.635,56.801 M10,50 C4.478,50 0,54.478 0,60 C0,65.523 4.478,70 10,70 C15.523,70 20,65.523 20,60 C20,54.478 15.523,50 10,50" id="icon-telegram"></path>
            </g>
        </g>
    </g>
</svg>