<?xml version="1.0" encoding="UTF-8"?>
<svg width="20px" height="20px" viewBox="0 0 20 20" version="1.1" xmlns="http://www.w3.org/2000/svg" xmlns:xlink="http://www.w3.org/1999/xlink">
    <title>icon-instagram</title>
    <g id="Home" stroke="none" stroke-width="1" fill="none" fill-rule="evenodd" opacity="0.5">
        <g id="Custom_Microphones_1440-Home" transform="translate(-1235.000000, -730.000000)" fill="#FFFFFF">
            <g id="Social" transform="translate(1235.000000, 630.000000)">
                <path d="M13.675,110.091 C13.675,112.17 11.989,113.856 9.91,113.856 C7.831,113.856 6.146,112.17 6.146,110.091 C6.146,108.012 7.831,106.326 9.91,106.326 C11.989,106.326 13.675,108.012 13.675,110.091 M15.939,105.418 C15.191,105.418 14.584,104.811 14.584,104.063 C14.584,103.315 15.191,102.708 15.939,102.708 L15.939,102.707 C16.687,102.707 17.294,103.315 17.294,104.063 C17.294,104.811 16.687,105.418 15.939,105.418 M9.91,115.89 C6.707,115.89 4.111,113.294 4.111,110.091 C4.111,106.888 6.707,104.291 9.91,104.291 C13.113,104.291 15.709,106.888 15.709,110.091 C15.709,113.294 13.113,115.89 9.91,115.89 M19.94,105.877 C19.889,104.813 19.721,104.086 19.475,103.45 C19.218,102.792 18.877,102.235 18.321,101.679 C17.764,101.122 17.208,100.78 16.55,100.526 C15.912,100.278 15.185,100.11 14.121,100.061 C13.054,100.012 12.715,100 9.999,100 C7.285,100 6.944,100.012 5.878,100.061 C4.813,100.11 4.086,100.278 3.45,100.526 C2.793,100.78 2.235,101.122 1.679,101.679 C1.123,102.235 0.781,102.792 0.525,103.449 C0.277,104.086 0.108,104.813 0.06,105.877 C0.012,106.944 0,107.284 0,110 C0,112.716 0.012,113.056 0.06,114.122 C0.11,115.188 0.278,115.914 0.525,116.55 C0.78,117.207 1.122,117.766 1.678,118.321 C2.234,118.877 2.792,119.22 3.449,119.476 C4.086,119.723 4.812,119.891 5.877,119.94 C6.944,119.988 7.284,120 10,120 C12.716,120 13.055,119.988 14.122,119.94 C15.187,119.891 15.914,119.723 16.55,119.476 C17.208,119.22 17.765,118.877 18.321,118.321 C18.877,117.766 19.218,117.207 19.475,116.55 C19.721,115.914 19.889,115.187 19.94,114.123 C19.987,113.056 20,112.716 20,110 C20,107.284 19.987,106.944 19.94,105.877" id="icon-instagram"></path>
            </g>
        </g>
    </g>
</svg>