<?xml version="1.0" encoding="UTF-8"?>
<svg width="20px" height="20px" viewBox="0 0 20 20" version="1.1" xmlns="http://www.w3.org/2000/svg" xmlns:xlink="http://www.w3.org/1999/xlink">
    <title>icon-whatsapp</title>
    <g id="Home" stroke="none" stroke-width="1" fill="none" fill-rule="evenodd" opacity="0.5">
        <g id="Custom_Microphones_1440-Home" transform="translate(-1235.000000, -630.000000)" fill="#FFFFFF">
            <g id="Social" transform="translate(1235.000000, 630.000000)">
                <path d="M12.062,15.648 C7.85133333,15.0173333 5.19866667,10.8446667 4.38333333,8.72666667 C3.57466667,6.626 5.01666667,4.278 5.892,4.278 C6.69866667,4.278 7.444,6.494 7.48866667,6.822 C7.48866667,7.03866667 7.418,7.33866667 6.58266667,8.174 C6.50466667,8.25066667 6.46333333,8.35533333 6.46333333,8.46533333 C6.46333333,10.612 11.088,13.5933333 11.8913333,13.5933333 C12.8686667,13.5933333 13.5313333,11.656 14.066,11.656 C14.3333333,11.656 14.932,12.1346667 15.4646667,12.5233333 C15.998,12.912 16.466,13.2113333 16.466,13.4806667 C16.466,14.0633333 15.3106667,16.1373333 12.062,15.648 M10,0 C4.48666667,0 0,4.48666667 0,10 C0,11.9406667 0.555333333,13.8213333 1.60733333,15.44 C1.672,15.542 1.69266667,15.6686667 1.65866667,15.784 C1.37133333,16.7833333 0.877333333,18.582 0.602666667,19.5873333 L4.35266667,18.4333333 C4.39066667,18.4213333 4.43133333,18.4146667 4.474,18.4146667 C4.55133333,18.4146667 4.62866667,18.438 4.69333333,18.478 C6.28266667,19.4726667 8.116,20 10,20 C15.514,20 20,15.514 20,10 C20,4.48666667 15.514,0 10,0" id="icon-whatsapp"></path>
            </g>
        </g>
    </g>
</svg>