<?xml version="1.0" encoding="UTF-8"?>
<svg width="142px" height="132px" viewBox="0 0 142 132" version="1.1" xmlns="http://www.w3.org/2000/svg" xmlns:xlink="http://www.w3.org/1999/xlink">
    <title>icon-crystal</title>
    <g id="Home" stroke="none" stroke-width="1" fill="none" fill-rule="evenodd">
        <g id="Custom_Microphones_1440-Home" transform="translate(-179.000000, -1329.000000)">
            <g id="icon-crystal" transform="translate(181.000000, 1331.000000)">
                <circle id="Oval" fill="#CCEFFF" cx="80" cy="70" r="60"></circle>
                <polyline id="Path" stroke="#8C8C8C" stroke-width="3" stroke-linecap="round" stroke-linejoin="round" points="30.1 87.14 59 118 118 55 95 24 59 24 23 24 0 55 12.53 68.38"></polyline>
                <polyline id="Path" stroke="#8C8C8C" stroke-width="3" stroke-linecap="round" stroke-linejoin="round" points="0 55 39 55 79 55 118 55"></polyline>
                <line x1="83.14" y1="46.98" x2="95" y2="24" id="Path" stroke="#8C8C8C" stroke-width="3" stroke-linecap="round" stroke-linejoin="round"></line>
                <polyline id="Path" stroke="#8C8C8C" stroke-width="3" stroke-linecap="round" stroke-linejoin="round" points="23 24 39 55 59 24 79 55"></polyline>
                <polyline id="Path" stroke="#8C8C8C" stroke-width="3" stroke-linecap="round" stroke-linejoin="round" points="41.55 63.02 59 118 79 55"></polyline>
                <line x1="103" y1="0" x2="103" y2="14" id="Path" stroke="#8C8C8C" stroke-width="3" stroke-linecap="round" stroke-linejoin="round"></line>
                <line x1="110" y1="7" x2="96" y2="7" id="Path" stroke="#8C8C8C" stroke-width="3" stroke-linecap="round" stroke-linejoin="round"></line>
                <line x1="21.53" y1="69" x2="21.53" y2="87" id="Path" stroke="#8C8C8C" stroke-width="3" stroke-linecap="round" stroke-linejoin="round"></line>
                <line x1="30.53" y1="78" x2="12.53" y2="78" id="Path" stroke="#8C8C8C" stroke-width="3" stroke-linecap="round" stroke-linejoin="round"></line>
            </g>
        </g>
    </g>
</svg>